<svg width="30" height="30" viewBox="0 0 30 30" fill="none" xmlns="http://www.w3.org/2000/svg">
<rect width="30" height="30" fill="white"/>
<path d="M21.4877 23.3773C20.4993 23.3291 19.5094 20.409 17.862 20.3366C17.0763 20.3021 15.7359 25.1906 13.5788 24.9942C11.2128 24.7788 4.963 24.8929 4.21206 23.9083C3.70419 23.2423 7.09229 16.4584 6.21248 14.7379C5.7762 13.8847 2.84656 15.3769 2.42344 14.7379C1.28792 13.0229 2.70826 12.3491 3.50602 11.5765C4.5407 10.5744 14.6152 3.54853 19.0152 4.02295C21.821 4.32549 20.8773 9.52519 20.2404 12.2281C19.6036 14.9309 26.3123 15.6549 27.2301 17.1511C28.148 18.6473 28.3598 21.0123 27.2301 22.1466C26.1005 23.2808 22.4762 23.4256 21.4877 23.3773Z" fill="#6FF15A" style="mix-blend-mode:difference"/>
</svg>
